# xmcd
#
# Track frame offsets:
#	182
#	9350
#	28327
#	45902
#	67367
#	86700
#	106902
#	122290
#	138575
#	158442
#	174382
#	196540
#
# Disc length: 2928 seconds
#
# Revision: 0
# Processed by: cddbd v1.5.2PL0 Copyright (c) Steve Scherf et al.
# Submitted via: EasyCDDAExtractor 10.0.3.1
#
DISCID=8f0b6e0c
DTITLE=GOLDEN LIFE - Natura
DYEAR=1900
DGENRE=
TTITLE0=Intro
TTITLE1=Natura
TTITLE2=What To Say
TTITLE3=Niebo
TTITLE4=Żonkil
TTITLE5=Ptasiek
TTITLE6=Kremowy
TTITLE7=Krzyk
TTITLE8=Brzydal
TTITLE9=Każdy Nowy Dzień
TTITLE10=Ptak I Drzewo
TTITLE11=Skrzydła
EXTD=
EXTT0=
EXTT1=
EXTT2=
EXTT3=
EXTT4=
EXTT5=
EXTT6=
EXTT7=
EXTT8=
EXTT9=
EXTT10=
EXTT11=
PLAYORDER=
